<?xml version="1.0" ?><svg height="72" id="svg1025" version="1.1" viewBox="0 0 19.05 19.050001" width="72" xmlns="http://www.w3.org/2000/svg" xmlns:inkscape="http://www.inkscape.org/namespaces/inkscape" xmlns:sodipodi="http://sodipodi.sourceforge.net/DTD/sodipodi-0.dtd" xmlns:svg="http://www.w3.org/2000/svg"><defs id="defs1022"/><g id="layer1" style="opacity:1"><g id="g6046" style="stroke-width:0.569517" transform="matrix(1.7558726,0,0,1.7558726,-7.5761823,-14.563764)"><circle cx="9.7394209" cy="13.71897" id="path25866" r="4.295001" style="font-variation-settings:normal;fill:none;fill-opacity:1;fill-rule:evenodd;stroke:#808080;stroke-width:0.284759;stroke-linecap:round;stroke-linejoin:round;stroke-miterlimit:4;stroke-dasharray:none;stroke-dashoffset:0;stroke-opacity:1;paint-order:markers fill stroke;stop-color:#000000"/><path d="m 9.739421,12.608196 v 3.591507" id="path25953" style="font-variation-settings:normal;fill:none;fill-opacity:1;stroke:#808080;stroke-width:0.284759;stroke-linecap:round;stroke-linejoin:round;stroke-miterlimit:4;stroke-dasharray:none;stroke-dashoffset:0;stroke-opacity:1;paint-order:markers fill stroke;stop-color:#000000"/><path d="m 93.822266,39.322266 c -0.04861,-2.81e-4 -0.09174,0.04319 -0.0918,0.0918 6e-5,0.04861 0.04319,0.09208 0.0918,0.0918 a 0.18514784,0.18514784 0 0 1 0.002,0 c 0.04839,-6.1e-5 0.09174,-0.04341 0.0918,-0.0918 -6.1e-5,-0.04839 -0.04341,-0.09173 -0.0918,-0.0918 a 0.18514784,0.18514784 0 0 1 -0.002,0 z" id="path25977" style="opacity:1;fill:#808080;fill-rule:evenodd;stroke:#808080;stroke-width:0.19042;stroke-linecap:round;stroke-linejoin:round;stroke-miterlimit:4;stroke-dasharray:none;paint-order:markers fill stroke;stop-color:#000000;stop-opacity:1" transform="translate(-84.084126,-27.898103)"/></g></g></svg>